<svg width="22" height="27" viewBox="0 0 22 27" fill="none" xmlns="http://www.w3.org/2000/svg">
<path d="M14.7504 22.25C14.7504 23.2446 14.3554 24.1984 13.6521 24.9017C12.9488 25.6049 11.995 26 11.0004 26C10.0059 26 9.05205 25.6049 8.34879 24.9017C7.64553 24.1984 7.25044 23.2446 7.25044 22.25M11.9017 4.75377L10.0692 4.75002C5.88919 4.74002 2.26044 8.13627 2.23169 12.25V16.9875C2.23169 17.975 2.10669 18.9388 1.56794 19.76L1.20919 20.3075C0.662943 21.1375 1.25044 22.25 2.23169 22.25H19.7692C20.7504 22.25 21.3367 21.1375 20.7917 20.3075L20.4329 19.76C19.8954 18.9388 19.7692 17.9738 19.7692 16.9863V12.2513C19.7192 8.13627 16.0817 4.76377 11.9017 4.75377V4.75377Z" stroke="#333333" stroke-width="2" stroke-linecap="round" stroke-linejoin="round"/>
<path d="M11.0004 1C11.6635 1 12.2994 1.26339 12.7682 1.73223C13.237 2.20107 13.5004 2.83696 13.5004 3.5V4.75H8.50043V3.5C8.50043 2.83696 8.76382 2.20107 9.23266 1.73223C9.7015 1.26339 10.3374 1 11.0004 1Z" stroke="#333333" stroke-width="2" stroke-linecap="round" stroke-linejoin="round"/>
</svg>
